# xmcd
#
# Track frame offsets:
#	150
#	14085
#	36923
#	46823
#	66578
#	84773
#	98948
#	108323
#	124478
#	139253
#	148853
#	163403
#	180728
#
# Disc length: 2597 seconds
#
# Revision: 1
# Processed by: cddbd v1.5.2PL0 Copyright (c) Steve Scherf et al.
# Submitted via: audiograbber 1.83.01
#
DISCID=c40a230d
DTITLE=Greg Baldock - Sings Marty Robbins Rarities
DYEAR=2018
DGENRE=Country
TTITLE0=They're Hanging Me Tonight
TTITLE1=Ballad Of Bill Thaxton
TTITLE2=Tall Handsome Stranger
TTITLE3=Ava Maria Morales
TTITLE4=Mr Shorty
TTITLE5=The Masters Call
TTITLE6=Ruby Ann
TTITLE7=You Don't Really Know
TTITLE8=Ride Cowboy Ride
TTITLE9=Five Brothers
TTITLE10=Utah Carroll
TTITLE11=Big Iron
TTITLE12=Silver Ghost
EXTD=
EXTT0=
EXTT1=
EXTT2=
EXTT3=
EXTT4=
EXTT5=
EXTT6=
EXTT7=
EXTT8=
EXTT9=
EXTT10=
EXTT11=
EXTT12=
PLAYORDER=
